# xmcd CD database file
#
# Track frame offsets:
#	150
#	19483
#	35869
#
# Disc length: 667 seconds
#
# Revision: 0
# Processed by: cddbd v1.5.1PL0 Copyright (c) Steve Scherf et al.
# Submitted via: CDex 1.51
#
DISCID=25029903
DTITLE=漁港 - 鰹
DYEAR=2005
DGENRE=Rock
TTITLE0=鰹 削れ！かつおぶし
TTITLE1=鰹 日本！鰹武士（勝男）
TTITLE2=鰹 出港街道！かつを節
EXTD=YEAR: 2005
EXTT0=
EXTT1=
EXTT2=
PLAYORDER=
